<svg width="32" height="32" viewBox="0 0 32 32" fill="none" xmlns="http://www.w3.org/2000/svg">
<path d="M19.1747 12.0365C19.9689 11.759 20.8237 11.6081 21.7143 11.6081C22.5872 11.6081 23.4257 11.7531 24.2068 12.0202C27.1907 13.0405 29.3333 15.8417 29.3333 19.1375C29.3333 23.2959 25.9221 26.6669 21.7143 26.6669H8.38094C5.22503 26.6669 2.66666 24.1387 2.66666 21.0199C2.66666 17.9011 5.22503 15.3728 8.38094 15.3728C8.75976 15.3728 9.12999 15.4092 9.4882 15.4787C10.2408 15.6248 10.9404 15.9168 11.5555 16.3237" stroke="#E8E8E9" stroke-width="2" stroke-linecap="round"/>
<path opacity="0.5" d="M9.48829 15.4785C9.18283 14.6637 9.01595 13.7825 9.01595 12.8627C9.01595 8.70436 12.4271 5.33333 16.6349 5.33333C20.5545 5.33333 23.7829 8.25828 24.2068 12.02" stroke="#C0C0C0" stroke-width="2" stroke-linecap="round"/>
</svg>
