<svg width="200" height="200" viewBox="0 0 200 200" fill="none" xmlns="http://www.w3.org/2000/svg">
<g clip-path="url(#clip0_51_29)">
<mask id="mask0_51_29" style="mask-type:luminance" maskUnits="userSpaceOnUse" x="0" y="0" width="200" height="200">
<path d="M200 0H0V200H200V0Z" fill="white"/>
</mask>
<g mask="url(#mask0_51_29)">
<path d="M176.92 64.0936C176.062 62.6259 176.615 60.7971 177.996 59.9897L184.471 56.2052C185.939 55.3474 187.767 55.8993 188.575 57.2815C189.432 58.7483 188.88 60.578 187.499 61.3854L181.024 65.1699C179.642 65.9772 177.777 65.5604 176.92 64.0936ZM154.935 44.5116C153.415 43.8938 152.665 42.0157 153.42 40.5323L156.379 33.705C156.997 32.1857 158.875 31.4364 160.359 32.1909C161.878 32.8078 162.628 34.6859 161.874 36.1702L158.913 42.9957C158.296 44.5151 156.504 45.2148 154.935 44.5116ZM125.922 42.7765C124.309 43.0728 122.665 41.894 122.503 40.2374L121.325 32.8909C121.028 31.2772 122.208 29.6347 123.864 29.4718C125.477 29.1754 127.119 30.3547 127.282 32.0108L128.46 39.3573C128.758 40.9705 127.624 42.524 125.922 42.7765ZM100.275 56.4203C99.1456 57.6593 97.2237 57.7401 96.0351 56.6974L90.4668 51.7282C89.2277 50.5991 89.1464 48.6764 90.1891 47.4878C91.3182 46.2488 93.2406 46.1688 94.4291 47.2116L99.997 52.1799C101.323 53.2594 101.404 55.1812 100.275 56.4203ZM88.4564 83.3658C88.249 84.9927 86.76 86.2105 85.183 86.0886L77.7832 85.3183C76.1562 85.1109 74.938 83.621 75.0595 82.0454C75.2669 80.4185 76.7559 79.2007 78.3319 79.3209L85.7327 80.0929C87.446 80.2498 88.6638 81.7388 88.4564 83.3658ZM94.7287 112.132C95.586 113.598 95.0338 115.428 93.6524 116.235L87.1773 120.02C85.7096 120.878 83.8808 120.325 83.0734 118.944C82.2156 117.476 82.7683 115.647 84.1497 114.84L90.6248 111.055C92.0925 110.197 93.8709 110.664 94.7287 112.132ZM116.714 131.714C118.233 132.331 118.984 134.209 118.228 135.692L115.269 142.519C114.651 144.039 112.773 144.789 111.289 144.033C109.77 143.416 109.02 141.538 109.774 140.054L112.735 133.229C113.352 131.709 115.144 131.009 116.714 131.714ZM145.991 134.64C147.625 134.264 149.26 135.278 149.549 136.962L151.146 144.252C151.522 145.886 150.508 147.52 148.824 147.81C147.19 148.186 145.555 147.172 145.266 145.488L143.669 138.197C143.294 136.564 144.358 135.016 145.991 134.64ZM171.374 119.805C172.503 118.566 174.424 118.484 175.613 119.527L181.182 124.497C182.42 125.625 182.502 127.548 181.459 128.736C180.33 129.975 178.408 130.055 177.219 129.013L171.651 124.044C170.412 122.915 170.245 121.044 171.374 119.805ZM183.192 92.8594C183.399 91.2315 184.888 90.0138 186.465 90.1357L193.865 90.906C195.492 91.1134 196.71 92.6032 196.589 94.1788C196.381 95.8058 194.893 97.0244 193.316 96.9034L185.915 96.1314C184.288 95.924 182.985 94.4863 183.192 92.8594Z" fill="#ECA914"/>
<path d="M98.7 88.1549C98.691 108.645 115.295 125.263 135.784 125.272C156.274 125.281 172.891 108.678 172.9 88.1879V88.1549C172.903 67.6649 156.296 51.0529 135.806 51.0499C115.316 51.0459 98.703 67.6529 98.7 88.1429V88.1549Z" fill="#ECA914"/>
<path d="M173.7 134.056C173.7 115.656 157.9 100.656 138.5 100.656C119.1 100.656 103.3 115.556 103.3 134.056V167.456H138.9C158.1 167.156 173.7 152.356 173.7 134.056Z" fill="#EAEAEA" fill-opacity="0.39"/>
<path d="M151.5 132.455C151.5 121.854 146.7 112.354 139.2 105.854C139.301 104.854 139.4 103.854 139.4 102.854C139.4 83.5549 123.601 67.8549 104.2 67.8549C84.8 67.8549 69 83.5549 69 102.854C69 103.155 69 103.555 69.101 103.854C64.7 101.655 59.7 100.455 54.5 100.455C36 100.455 21 115.455 21 133.955C21 152.055 35.4 166.755 53.4 167.354V167.455H118V167.354C136.5 166.555 151.5 151.255 151.5 132.455Z" fill="#F7F7F7" fill-opacity="0.48"/>
</g>
</g>
<defs>
<clipPath id="clip0_51_29">
<rect width="200" height="200" fill="white"/>
</clipPath>
</defs>
</svg>
