<svg width="26" height="33" viewBox="0 0 26 33" fill="none" xmlns="http://www.w3.org/2000/svg">
<path fill-rule="evenodd" clip-rule="evenodd" d="M13.125 9.28125C11.4162 9.28125 10.0312 10.6662 10.0312 12.375C10.0312 14.0838 11.4162 15.4687 13.125 15.4687C14.8338 15.4687 16.2187 14.0838 16.2187 12.375C16.2187 10.6662 14.8338 9.28125 13.125 9.28125ZM13.125 17.5312C10.2777 17.5312 7.96875 15.2233 7.96875 12.375C7.96875 9.52668 10.2777 7.21875 13.125 7.21875C15.9723 7.21875 18.2812 9.52668 18.2812 12.375C18.2812 15.2233 15.9723 17.5312 13.125 17.5312ZM13.125 0C6.2909 0 0.75 5.5409 0.75 12.375C0.75 17.5498 11.0677 33.0113 13.125 33C15.1504 33.0113 25.5 17.4797 25.5 12.375C25.5 5.5409 19.9591 0 13.125 0Z" fill="#676B73"/>
</svg>
