<svg width="27" height="24" viewBox="0 0 27 24" fill="none" xmlns="http://www.w3.org/2000/svg">
<path fill-rule="evenodd" clip-rule="evenodd" d="M12.191 1.50763C11.3547 0.18988 9.52455 -0.30068 8.08171 0.498918L5.93505 1.65057C4.35173 2.49912 3.81488 4.4018 4.71937 5.86942L4.72001 5.87046C5.18661 6.62514 5.11337 7.10723 4.96773 7.34417C4.82201 7.58124 4.41399 7.88168 3.48662 7.88168C1.66129 7.88168 0.188843 9.27976 0.188843 10.9733V13.0267C0.188843 14.7203 1.66129 16.1183 3.48662 16.1183C4.41399 16.1183 4.82201 16.4187 4.96773 16.6558C5.11337 16.8928 5.18661 17.3748 4.72001 18.1295L4.71937 18.1306C3.81488 19.5983 4.35223 21.5012 5.93556 22.3497L8.08182 23.5011C9.52465 24.3006 11.3547 23.8102 12.191 22.4924L12.3335 22.2618C12.8002 21.507 13.2841 21.3246 13.5774 21.3246C13.8695 21.3246 14.3497 21.5055 14.8102 22.2585L14.8122 22.2618L14.9491 22.4834L14.9547 22.4924C15.7909 23.8102 17.621 24.3006 19.0638 23.5011L21.2106 22.3495C22.795 21.5003 23.3285 19.6108 22.4286 18.1342L22.4257 18.1295C21.959 17.3748 22.0323 16.8928 22.1779 16.6558C22.3237 16.4187 22.7317 16.1183 23.6591 16.1183C25.4844 16.1183 26.9568 14.7203 26.9568 13.0267V10.9733C26.9568 9.2621 25.4655 7.88168 23.6591 7.88168C22.7317 7.88168 22.3237 7.58124 22.1779 7.34417C22.0323 7.10723 21.959 6.62514 22.4257 5.87046L22.4263 5.86942C23.3309 4.40165 22.7938 2.49871 21.2101 1.6503L19.064 0.498918C17.6211 -0.30068 15.7909 0.189833 14.9547 1.50759L14.8122 1.73827C14.3455 2.49301 13.8616 2.67543 13.5681 2.67543C13.2762 2.67543 12.7959 2.49455 12.3355 1.74151L12.3335 1.73827L12.1966 1.51658L12.191 1.50763ZM17.3 12C17.3 13.933 15.6285 15.5 13.5666 15.5C11.5047 15.5 9.83329 13.933 9.83329 12C9.83329 10.0669 11.5047 8.5 13.5666 8.5C15.6285 8.5 17.3 10.0669 17.3 12Z" fill="#676B73"/>
</svg>
