<svg width="26" height="25" viewBox="0 0 26 25" fill="none" xmlns="http://www.w3.org/2000/svg">
<path d="M0.5 23.6111V1.38889C0.5 1.02053 0.646329 0.667263 0.906796 0.406796C1.16726 0.146329 1.52053 0 1.88889 0H11.6111V25H1.88889C1.52053 25 1.16726 24.8537 0.906796 24.5932C0.646329 24.3327 0.5 23.9795 0.5 23.6111ZM25.5 23.6111V13.8889H14.3889V25H24.1111C24.4795 25 24.8327 24.8537 25.0932 24.5932C25.3537 24.3327 25.5 23.9795 25.5 23.6111ZM25.5 1.38889C25.5 1.02053 25.3537 0.667263 25.0932 0.406796C24.8327 0.146329 24.4795 0 24.1111 0H14.3889V11.1111H25.5V1.38889Z" fill="#676B73"/>
</svg>
