<svg width="539" height="302" viewBox="0 0 539 302" fill="none" xmlns="http://www.w3.org/2000/svg">
<mask id="path-1-inside-1_202_2" fill="white">
<path fill-rule="evenodd" clip-rule="evenodd" d="M291.502 103.78C272.04 43.5715 215.878 0.0587158 149.628 0.0587158C67.2394 0.0587158 0.449951 67.3555 0.449951 150.37C0.449951 233.385 67.2394 300.682 149.628 300.682L271 300.682V301.416L439.075 301.416C494.001 301.416 538.527 256.551 538.527 201.208C538.527 145.865 494.001 101 439.075 101C416.441 101 395.574 108.618 378.861 121.448C361.992 108.175 340.764 100.266 317.703 100.266C308.635 100.266 299.85 101.489 291.502 103.78Z"/>
</mask>
<g filter="url(#filter0_i_202_2)">
<path fill-rule="evenodd" clip-rule="evenodd" d="M291.502 103.78C272.04 43.5715 215.878 0.0587158 149.628 0.0587158C67.2394 0.0587158 0.449951 67.3555 0.449951 150.37C0.449951 233.385 67.2394 300.682 149.628 300.682L271 300.682V301.416L439.075 301.416C494.001 301.416 538.527 256.551 538.527 201.208C538.527 145.865 494.001 101 439.075 101C416.441 101 395.574 108.618 378.861 121.448C361.992 108.175 340.764 100.266 317.703 100.266C308.635 100.266 299.85 101.489 291.502 103.78Z" fill="url(#paint0_linear_202_2)"/>
</g>
<path d="M291.502 103.78L290.551 104.088L290.845 104.998L291.767 104.745L291.502 103.78ZM149.628 300.682L149.628 299.682H149.628V300.682ZM271 300.682H272V299.682L271 299.682L271 300.682ZM271 301.416H270V302.416L271 302.416L271 301.416ZM439.075 301.416L439.075 300.416L439.075 300.416L439.075 301.416ZM378.861 121.448L378.242 122.234L378.853 122.714L379.469 122.241L378.861 121.448ZM292.454 103.473C272.864 42.8673 216.328 -0.941284 149.628 -0.941284V1.05872C215.427 1.05872 271.217 44.2757 290.551 104.088L292.454 103.473ZM149.628 -0.941284C66.68 -0.941284 -0.550049 66.8104 -0.550049 150.37H1.44995C1.44995 67.9007 67.7988 1.05872 149.628 1.05872V-0.941284ZM-0.550049 150.37C-0.550049 233.93 66.68 301.682 149.628 301.682V299.682C67.7988 299.682 1.44995 232.84 1.44995 150.37H-0.550049ZM149.628 301.682L271 301.682L271 299.682L149.628 299.682L149.628 301.682ZM270 300.682V301.416H272V300.682H270ZM271 302.416L439.075 302.416L439.075 300.416L271 300.416L271 302.416ZM439.075 302.416C494.56 302.416 539.527 257.096 539.527 201.208H537.527C537.527 256.006 493.441 300.416 439.075 300.416V302.416ZM539.527 201.208C539.527 145.319 494.56 100 439.075 100V102C493.441 102 537.527 146.41 537.527 201.208H539.527ZM439.075 100C416.213 100 395.133 107.696 378.252 120.655L379.469 122.241C396.015 109.54 416.67 102 439.075 102V100ZM317.703 101.266C340.531 101.266 361.543 109.094 378.242 122.234L379.479 120.662C362.441 107.256 340.997 99.2665 317.703 99.2665V101.266ZM291.767 104.745C300.029 102.477 308.725 101.266 317.703 101.266V99.2665C308.544 99.2665 299.671 100.502 291.238 102.816L291.767 104.745Z" fill="black" fill-opacity="0.05" mask="url(#path-1-inside-1_202_2)"/>
<defs>
<filter id="filter0_i_202_2" x="0.449951" y="0.0587158" width="538.077" height="350.004" filterUnits="userSpaceOnUse" color-interpolation-filters="sRGB">
<feFlood flood-opacity="0" result="BackgroundImageFix"/>
<feBlend mode="normal" in="SourceGraphic" in2="BackgroundImageFix" result="shape"/>
<feColorMatrix in="SourceAlpha" type="matrix" values="0 0 0 0 0 0 0 0 0 0 0 0 0 0 0 0 0 0 127 0" result="hardAlpha"/>
<feOffset dy="48.6468"/>
<feGaussianBlur stdDeviation="30"/>
<feComposite in2="hardAlpha" operator="arithmetic" k2="-1" k3="1"/>
<feColorMatrix type="matrix" values="0 0 0 0 1 0 0 0 0 1 0 0 0 0 1 0 0 0 1 0"/>
<feBlend mode="normal" in2="shape" result="effect1_innerShadow_202_2"/>
</filter>
<linearGradient id="paint0_linear_202_2" x1="38.1452" y1="0.0587133" x2="443.167" y2="398.509" gradientUnits="userSpaceOnUse">
<stop stop-color="white"/>
<stop offset="1" stop-color="#C1C1C1"/>
</linearGradient>
</defs>
</svg>
