<svg width="420" height="313" viewBox="0 0 420 313" fill="none" xmlns="http://www.w3.org/2000/svg">
<g filter="url(#filter0_i_15_8)">
<circle cx="320.082" cy="87.5" r="87.5" fill="url(#paint0_linear_15_8)"/>
</g>
<mask id="path-2-inside-1_15_8" fill="white">
<path fill-rule="evenodd" clip-rule="evenodd" d="M319.761 313L150.358 313C67.3176 313 0 245.843 0 163C0 80.1573 67.3176 13 150.358 13C217.131 13 273.738 56.4226 293.354 116.507C301.767 114.22 310.621 113 319.761 113C375.122 113 420 157.771 420 213C420 268.228 375.122 313 319.761 313Z"/>
</mask>
<g filter="url(#filter1_i_15_8)">
<path fill-rule="evenodd" clip-rule="evenodd" d="M319.761 313L150.358 313C67.3176 313 0 245.843 0 163C0 80.1573 67.3176 13 150.358 13C217.131 13 273.738 56.4226 293.354 116.507C301.767 114.22 310.621 113 319.761 113C375.122 113 420 157.771 420 213C420 268.228 375.122 313 319.761 313Z" fill="url(#paint1_linear_15_8)"/>
</g>
<path d="M150.358 313V312V313ZM319.761 313V314V313ZM293.354 116.507L292.403 116.817L292.698 117.721L293.616 117.472L293.354 116.507ZM150.358 314L319.761 314V312L150.358 312V314ZM-1 163C-1 246.397 66.7675 314 150.358 314V312C67.8676 312 1 245.288 1 163H-1ZM150.358 12C66.7675 12 -1 79.6027 -1 163H1C1 80.7118 67.8676 14 150.358 14V12ZM294.304 116.196C274.558 55.7118 217.575 12 150.358 12V14C216.687 14 272.918 57.1334 292.403 116.817L294.304 116.196ZM293.616 117.472C301.945 115.208 310.711 114 319.761 114V112C310.532 112 301.59 113.232 293.091 115.542L293.616 117.472ZM319.761 114C374.572 114 419 158.326 419 213H421C421 157.217 375.672 112 319.761 112V114ZM419 213C419 267.674 374.572 312 319.761 312V314C375.672 314 421 268.783 421 213H419Z" fill="black" fill-opacity="0.05" mask="url(#path-2-inside-1_15_8)"/>
<defs>
<filter id="filter0_i_15_8" x="232.582" y="0" width="175" height="195" filterUnits="userSpaceOnUse" color-interpolation-filters="sRGB">
<feFlood flood-opacity="0" result="BackgroundImageFix"/>
<feBlend mode="normal" in="SourceGraphic" in2="BackgroundImageFix" result="shape"/>
<feColorMatrix in="SourceAlpha" type="matrix" values="0 0 0 0 0 0 0 0 0 0 0 0 0 0 0 0 0 0 127 0" result="hardAlpha"/>
<feOffset dy="20"/>
<feGaussianBlur stdDeviation="35"/>
<feComposite in2="hardAlpha" operator="arithmetic" k2="-1" k3="1"/>
<feColorMatrix type="matrix" values="0 0 0 0 1 0 0 0 0 1 0 0 0 0 1 0 0 0 1 0"/>
<feBlend mode="overlay" in2="shape" result="effect1_innerShadow_15_8"/>
</filter>
<filter id="filter1_i_15_8" x="0" y="13" width="420" height="348.647" filterUnits="userSpaceOnUse" color-interpolation-filters="sRGB">
<feFlood flood-opacity="0" result="BackgroundImageFix"/>
<feBlend mode="normal" in="SourceGraphic" in2="BackgroundImageFix" result="shape"/>
<feColorMatrix in="SourceAlpha" type="matrix" values="0 0 0 0 0 0 0 0 0 0 0 0 0 0 0 0 0 0 127 0" result="hardAlpha"/>
<feOffset dy="48.6468"/>
<feGaussianBlur stdDeviation="30"/>
<feComposite in2="hardAlpha" operator="arithmetic" k2="-1" k3="1"/>
<feColorMatrix type="matrix" values="0 0 0 0 1 0 0 0 0 1 0 0 0 0 1 0 0 0 1 0"/>
<feBlend mode="normal" in2="shape" result="effect1_innerShadow_15_8"/>
</filter>
<linearGradient id="paint0_linear_15_8" x1="320.082" y1="0" x2="320.082" y2="175" gradientUnits="userSpaceOnUse">
<stop stop-color="#FFD358"/>
<stop offset="1" stop-color="#FA6C21"/>
</linearGradient>
<linearGradient id="paint1_linear_15_8" x1="29.4233" y1="13" x2="419.459" y2="313.861" gradientUnits="userSpaceOnUse">
<stop stop-color="white"/>
<stop offset="1" stop-color="#C1C1C1"/>
</linearGradient>
</defs>
</svg>
