<svg width="442" height="400" viewBox="0 0 442 400" fill="none" xmlns="http://www.w3.org/2000/svg">
<g filter="url(#filter0_i_12_3)">
<circle cx="241.472" cy="200" r="200" fill="url(#paint0_linear_12_3)"/>
</g>
<mask id="path-2-inside-1_12_3" fill="white">
<path fill-rule="evenodd" clip-rule="evenodd" d="M280.172 350L131.742 350C58.983 350 0 289.558 0 215C0 140.442 58.983 80 131.742 80C190.248 80 239.846 119.08 257.034 173.156C264.406 171.098 272.164 170 280.172 170C328.678 170 368 210.294 368 260C368 309.706 328.678 350 280.172 350Z"/>
</mask>
<g filter="url(#filter1_i_12_3)">
<path fill-rule="evenodd" clip-rule="evenodd" d="M280.172 350L131.742 350C58.983 350 0 289.558 0 215C0 140.442 58.983 80 131.742 80C190.248 80 239.846 119.08 257.034 173.156C264.406 171.098 272.164 170 280.172 170C328.678 170 368 210.294 368 260C368 309.706 328.678 350 280.172 350Z" fill="url(#paint1_linear_12_3)"/>
</g>
<path d="M131.742 350V349V350ZM280.172 350V351V350ZM257.034 173.156L256.081 173.459L256.373 174.379L257.303 174.119L257.034 173.156ZM131.742 351L280.172 351V349L131.742 349V351ZM-1 215C-1 290.087 58.4078 351 131.742 351V349C59.5582 349 1 289.029 1 215H-1ZM131.742 79C58.4078 79 -1 139.912 -1 215H1C1 140.971 59.5582 81 131.742 81V79ZM257.987 172.853C240.676 118.388 190.71 79 131.742 79V81C189.787 81 239.017 119.773 256.081 173.459L257.987 172.853ZM257.303 174.119C264.588 172.086 272.255 171 280.172 171V169C272.072 169 264.223 170.111 256.765 172.193L257.303 174.119ZM280.172 171C328.103 171 367 210.823 367 260H369C369 209.765 329.253 169 280.172 169V171ZM367 260C367 309.176 328.103 349 280.172 349V351C329.253 351 369 310.235 369 260H367Z" fill="black" fill-opacity="0.05" mask="url(#path-2-inside-1_12_3)"/>
<defs>
<filter id="filter0_i_12_3" x="41.4719" y="0" width="400" height="420" filterUnits="userSpaceOnUse" color-interpolation-filters="sRGB">
<feFlood flood-opacity="0" result="BackgroundImageFix"/>
<feBlend mode="normal" in="SourceGraphic" in2="BackgroundImageFix" result="shape"/>
<feColorMatrix in="SourceAlpha" type="matrix" values="0 0 0 0 0 0 0 0 0 0 0 0 0 0 0 0 0 0 127 0" result="hardAlpha"/>
<feOffset dy="20"/>
<feGaussianBlur stdDeviation="35"/>
<feComposite in2="hardAlpha" operator="arithmetic" k2="-1" k3="1"/>
<feColorMatrix type="matrix" values="0 0 0 0 1 0 0 0 0 1 0 0 0 0 1 0 0 0 1 0"/>
<feBlend mode="overlay" in2="shape" result="effect1_innerShadow_12_3"/>
</filter>
<filter id="filter1_i_12_3" x="0" y="80" width="368" height="318.647" filterUnits="userSpaceOnUse" color-interpolation-filters="sRGB">
<feFlood flood-opacity="0" result="BackgroundImageFix"/>
<feBlend mode="normal" in="SourceGraphic" in2="BackgroundImageFix" result="shape"/>
<feColorMatrix in="SourceAlpha" type="matrix" values="0 0 0 0 0 0 0 0 0 0 0 0 0 0 0 0 0 0 127 0" result="hardAlpha"/>
<feOffset dy="48.6468"/>
<feGaussianBlur stdDeviation="30"/>
<feComposite in2="hardAlpha" operator="arithmetic" k2="-1" k3="1"/>
<feColorMatrix type="matrix" values="0 0 0 0 1 0 0 0 0 1 0 0 0 0 1 0 0 0 1 0"/>
<feBlend mode="normal" in2="shape" result="effect1_innerShadow_12_3"/>
</filter>
<linearGradient id="paint0_linear_12_3" x1="241.472" y1="0" x2="241.472" y2="400" gradientUnits="userSpaceOnUse">
<stop stop-color="#FFD358"/>
<stop offset="1" stop-color="#FA6C21"/>
</linearGradient>
<linearGradient id="paint1_linear_12_3" x1="25.7804" y1="80" x2="374.314" y2="341.735" gradientUnits="userSpaceOnUse">
<stop stop-color="white"/>
<stop offset="1" stop-color="#C1C1C1"/>
</linearGradient>
</defs>
</svg>
