<svg width="424" height="527" viewBox="0 0 424 527" fill="none" xmlns="http://www.w3.org/2000/svg">
<g style="mix-blend-mode:color-burn" opacity="0.5" filter="url(#filter0_f_30_595)">
<path fill-rule="evenodd" clip-rule="evenodd" d="M207.636 493.522C203.383 502.384 194.762 508.446 184.819 508.446C170.658 508.446 159.179 496.151 159.179 480.986C159.179 478.811 159.406 476.613 159.837 474.38C157.774 479.658 156.615 484.696 156.615 489.612C156.615 504.778 168.094 517.072 182.255 517.072C195.175 517.072 205.863 506.836 207.636 493.522Z" fill="url(#paint0_radial_30_595)" fill-opacity="0.3"/>
</g>
<path opacity="0.5" d="M207.637 489.476C207.637 504.642 196.158 516.936 181.998 516.936C167.838 516.936 156.359 504.642 156.359 489.476C156.359 474.31 167.384 457.99 181.998 437C194.305 457.415 207.637 474.31 207.637 489.476Z" fill="url(#paint1_radial_30_595)"/>
<g style="mix-blend-mode:screen" opacity="0.3">
<ellipse cx="188.536" cy="466.904" rx="26.2802" ry="28.754" fill="url(#paint2_radial_30_595)"/>
</g>
<g style="mix-blend-mode:screen" opacity="0.3">
<ellipse cx="173.665" cy="498.246" rx="26.2802" ry="28.754" fill="url(#paint3_radial_30_595)"/>
</g>
<g style="mix-blend-mode:color-burn" opacity="0.5" filter="url(#filter1_f_30_595)">
<path fill-rule="evenodd" clip-rule="evenodd" d="M252.235 422.193C248.438 429.592 240.741 434.654 231.863 434.654C219.22 434.654 208.971 424.389 208.971 411.726C208.971 409.91 209.173 408.075 209.558 406.211C207.716 410.618 206.681 414.824 206.681 418.928C206.681 431.591 216.931 441.856 229.574 441.856C241.11 441.856 250.653 433.31 252.235 422.193Z" fill="url(#paint4_radial_30_595)" fill-opacity="0.3"/>
</g>
<path opacity="0.5" d="M252.237 418.815C252.237 431.478 241.988 441.743 229.345 441.743C216.702 441.743 206.453 431.478 206.453 418.815C206.453 406.152 216.296 392.526 229.345 375C240.333 392.046 252.237 406.152 252.237 418.815Z" fill="url(#paint5_radial_30_595)"/>
<g style="mix-blend-mode:screen" opacity="0.3">
<ellipse cx="235.182" cy="399.969" rx="23.4645" ry="24.0083" fill="url(#paint6_radial_30_595)"/>
</g>
<g style="mix-blend-mode:screen" opacity="0.3">
<ellipse cx="221.905" cy="426.138" rx="23.4645" ry="24.0083" fill="url(#paint7_radial_30_595)"/>
</g>
<g style="mix-blend-mode:color-burn" opacity="0.5" filter="url(#filter2_f_30_595)">
<path fill-rule="evenodd" clip-rule="evenodd" d="M303.966 493.522C299.713 502.384 291.092 508.445 281.149 508.445C266.989 508.445 255.51 496.151 255.51 480.985C255.51 478.811 255.736 476.613 256.168 474.38C254.104 479.658 252.946 484.696 252.946 489.612C252.946 504.777 264.425 517.072 278.585 517.072C291.505 517.072 302.194 506.836 303.966 493.522Z" fill="url(#paint8_radial_30_595)" fill-opacity="0.3"/>
</g>
<path opacity="0.5" d="M303.968 489.476C303.968 504.642 292.489 516.936 278.329 516.936C264.168 516.936 252.689 504.642 252.689 489.476C252.689 474.31 263.714 457.99 278.329 437C290.635 457.415 303.968 474.31 303.968 489.476Z" fill="url(#paint9_radial_30_595)"/>
<g style="mix-blend-mode:screen" opacity="0.3">
<ellipse cx="284.867" cy="466.904" rx="26.2802" ry="28.754" fill="url(#paint10_radial_30_595)"/>
</g>
<g style="mix-blend-mode:screen" opacity="0.3">
<ellipse cx="269.996" cy="498.246" rx="26.2802" ry="28.754" fill="url(#paint11_radial_30_595)"/>
</g>
<g style="mix-blend-mode:color-burn" opacity="0.5" filter="url(#filter3_f_30_595)">
<path fill-rule="evenodd" clip-rule="evenodd" d="M157.832 421.804C154.034 429.203 146.337 434.265 137.459 434.265C124.816 434.265 114.567 423.999 114.567 411.337C114.567 409.521 114.769 407.686 115.155 405.822C113.312 410.229 112.278 414.435 112.278 418.539C112.278 431.202 122.527 441.467 135.17 441.467C146.706 441.467 156.249 432.921 157.832 421.804Z" fill="url(#paint12_radial_30_595)" fill-opacity="0.3"/>
</g>
<path opacity="0.5" d="M157.833 418.426C157.833 431.089 147.584 441.354 134.941 441.354C122.298 441.354 112.049 431.089 112.049 418.426C112.049 405.763 121.893 392.137 134.941 374.611C145.929 391.657 157.833 405.763 157.833 418.426Z" fill="url(#paint13_radial_30_595)"/>
<g style="mix-blend-mode:screen" opacity="0.3">
<ellipse cx="140.779" cy="399.579" rx="23.4645" ry="24.0083" fill="url(#paint14_radial_30_595)"/>
</g>
<g style="mix-blend-mode:screen" opacity="0.3">
<ellipse cx="127.501" cy="425.748" rx="23.4645" ry="24.0083" fill="url(#paint15_radial_30_595)"/>
</g>
<g style="mix-blend-mode:color-burn" opacity="0.5" filter="url(#filter4_f_30_595)">
<path fill-rule="evenodd" clip-rule="evenodd" d="M345.676 422.193C341.878 429.592 334.181 434.654 325.303 434.654C312.66 434.654 302.411 424.389 302.411 411.726C302.411 409.91 302.613 408.075 302.998 406.211C301.156 410.618 300.122 414.824 300.122 418.928C300.122 431.591 310.371 441.856 323.014 441.856C334.55 441.856 344.093 433.31 345.676 422.193Z" fill="url(#paint16_radial_30_595)" fill-opacity="0.3"/>
</g>
<path opacity="0.5" d="M345.677 418.815C345.677 431.478 335.428 441.743 322.785 441.743C310.142 441.743 299.893 431.478 299.893 418.815C299.893 406.152 309.736 392.526 322.785 375C333.773 392.046 345.677 406.152 345.677 418.815Z" fill="url(#paint17_radial_30_595)"/>
<g style="mix-blend-mode:screen" opacity="0.3">
<ellipse cx="328.622" cy="399.969" rx="23.4645" ry="24.0083" fill="url(#paint18_radial_30_595)"/>
</g>
<g style="mix-blend-mode:screen" opacity="0.3">
<ellipse cx="315.345" cy="426.138" rx="23.4645" ry="24.0083" fill="url(#paint19_radial_30_595)"/>
</g>
<g filter="url(#filter5_di_30_595)">
<path fill-rule="evenodd" clip-rule="evenodd" d="M331.51 1.08608C326.359 0.370134 321.096 0 315.747 0C253.345 0 202.759 50.368 202.759 112.5C202.759 174.632 253.345 225 315.747 225C362.68 225 402.929 196.509 420 155.95C418.899 155.983 417.793 156 416.683 156C359.69 156 313.487 111.676 313.487 57C313.487 36.2527 320.14 16.996 331.51 1.08608Z" fill="url(#paint20_linear_30_595)"/>
</g>
<mask id="path-22-inside-1_30_595" fill="white">
<path fill-rule="evenodd" clip-rule="evenodd" d="M319.761 367L150.358 367C67.3176 367 0 299.843 0 217C0 134.157 67.3176 67 150.358 67C217.131 67 273.738 110.423 293.354 170.507C301.767 168.22 310.622 167 319.761 167C375.122 167 420 211.772 420 267C420 322.228 375.122 367 319.761 367Z"/>
</mask>
<g filter="url(#filter6_i_30_595)">
<path fill-rule="evenodd" clip-rule="evenodd" d="M319.761 367L150.358 367C67.3176 367 0 299.843 0 217C0 134.157 67.3176 67 150.358 67C217.131 67 273.738 110.423 293.354 170.507C301.767 168.22 310.622 167 319.761 167C375.122 167 420 211.772 420 267C420 322.228 375.122 367 319.761 367Z" fill="url(#paint21_linear_30_595)"/>
</g>
<path d="M150.358 367V366V367ZM319.761 367V368V367ZM293.354 170.507L292.403 170.817L292.698 171.721L293.616 171.472L293.354 170.507ZM150.358 368L319.761 368V366L150.358 366V368ZM-1 217C-1 300.397 66.7675 368 150.358 368V366C67.8676 366 1 299.288 1 217H-1ZM150.358 66C66.7675 66 -1 133.603 -1 217H1C1 134.712 67.8676 68 150.358 68V66ZM294.304 170.196C274.558 109.712 217.575 66 150.358 66V68C216.687 68 272.918 111.133 292.403 170.817L294.304 170.196ZM293.616 171.472C301.945 169.208 310.711 168 319.761 168V166C310.532 166 301.59 167.232 293.091 169.542L293.616 171.472ZM319.761 168C374.572 168 419 212.326 419 267H421C421 211.217 375.672 166 319.761 166V168ZM419 267C419 321.674 374.572 366 319.761 366V368C375.672 368 421 322.783 421 267H419Z" fill="black" fill-opacity="0.05" mask="url(#path-22-inside-1_30_595)"/>
<defs>
<filter id="filter0_f_30_595" x="148.615" y="466.38" width="67.0204" height="58.6918" filterUnits="userSpaceOnUse" color-interpolation-filters="sRGB">
<feFlood flood-opacity="0" result="BackgroundImageFix"/>
<feBlend mode="normal" in="SourceGraphic" in2="BackgroundImageFix" result="shape"/>
<feGaussianBlur stdDeviation="4" result="effect1_foregroundBlur_30_595"/>
</filter>
<filter id="filter1_f_30_595" x="198.681" y="398.211" width="61.554" height="51.6454" filterUnits="userSpaceOnUse" color-interpolation-filters="sRGB">
<feFlood flood-opacity="0" result="BackgroundImageFix"/>
<feBlend mode="normal" in="SourceGraphic" in2="BackgroundImageFix" result="shape"/>
<feGaussianBlur stdDeviation="4" result="effect1_foregroundBlur_30_595"/>
</filter>
<filter id="filter2_f_30_595" x="244.946" y="466.38" width="67.0204" height="58.6915" filterUnits="userSpaceOnUse" color-interpolation-filters="sRGB">
<feFlood flood-opacity="0" result="BackgroundImageFix"/>
<feBlend mode="normal" in="SourceGraphic" in2="BackgroundImageFix" result="shape"/>
<feGaussianBlur stdDeviation="4" result="effect1_foregroundBlur_30_595"/>
</filter>
<filter id="filter3_f_30_595" x="104.278" y="397.822" width="61.554" height="51.6455" filterUnits="userSpaceOnUse" color-interpolation-filters="sRGB">
<feFlood flood-opacity="0" result="BackgroundImageFix"/>
<feBlend mode="normal" in="SourceGraphic" in2="BackgroundImageFix" result="shape"/>
<feGaussianBlur stdDeviation="4" result="effect1_foregroundBlur_30_595"/>
</filter>
<filter id="filter4_f_30_595" x="292.122" y="398.211" width="61.554" height="51.6451" filterUnits="userSpaceOnUse" color-interpolation-filters="sRGB">
<feFlood flood-opacity="0" result="BackgroundImageFix"/>
<feBlend mode="normal" in="SourceGraphic" in2="BackgroundImageFix" result="shape"/>
<feGaussianBlur stdDeviation="4" result="effect1_foregroundBlur_30_595"/>
</filter>
<filter id="filter5_di_30_595" x="177.759" y="0" width="246.241" height="240" filterUnits="userSpaceOnUse" color-interpolation-filters="sRGB">
<feFlood flood-opacity="0" result="BackgroundImageFix"/>
<feColorMatrix in="SourceAlpha" type="matrix" values="0 0 0 0 0 0 0 0 0 0 0 0 0 0 0 0 0 0 127 0" result="hardAlpha"/>
<feOffset dy="4"/>
<feGaussianBlur stdDeviation="2"/>
<feComposite in2="hardAlpha" operator="out"/>
<feColorMatrix type="matrix" values="0 0 0 0 0 0 0 0 0 0 0 0 0 0 0 0 0 0 0.25 0"/>
<feBlend mode="normal" in2="BackgroundImageFix" result="effect1_dropShadow_30_595"/>
<feBlend mode="normal" in="SourceGraphic" in2="effect1_dropShadow_30_595" result="shape"/>
<feColorMatrix in="SourceAlpha" type="matrix" values="0 0 0 0 0 0 0 0 0 0 0 0 0 0 0 0 0 0 127 0" result="hardAlpha"/>
<feOffset dx="-25" dy="15"/>
<feGaussianBlur stdDeviation="12.5"/>
<feComposite in2="hardAlpha" operator="arithmetic" k2="-1" k3="1"/>
<feColorMatrix type="matrix" values="0 0 0 0 0.607843 0 0 0 0 0.529412 0 0 0 0 0.921569 0 0 0 1 0"/>
<feBlend mode="normal" in2="shape" result="effect2_innerShadow_30_595"/>
</filter>
<filter id="filter6_i_30_595" x="0" y="67" width="420" height="348.647" filterUnits="userSpaceOnUse" color-interpolation-filters="sRGB">
<feFlood flood-opacity="0" result="BackgroundImageFix"/>
<feBlend mode="normal" in="SourceGraphic" in2="BackgroundImageFix" result="shape"/>
<feColorMatrix in="SourceAlpha" type="matrix" values="0 0 0 0 0 0 0 0 0 0 0 0 0 0 0 0 0 0 127 0" result="hardAlpha"/>
<feOffset dy="48.6468"/>
<feGaussianBlur stdDeviation="30"/>
<feComposite in2="hardAlpha" operator="arithmetic" k2="-1" k3="1"/>
<feColorMatrix type="matrix" values="0 0 0 0 1 0 0 0 0 1 0 0 0 0 1 0 0 0 1 0"/>
<feBlend mode="normal" in2="shape" result="effect1_innerShadow_30_595"/>
</filter>
<radialGradient id="paint0_radial_30_595" cx="0" cy="0" r="1" gradientUnits="userSpaceOnUse" gradientTransform="translate(182.255 491.481) rotate(-40.9122) scale(44.7839 32.9571)">
<stop stop-color="#3CC7F5"/>
<stop offset="0.0001" stop-color="#3CC7F5"/>
<stop offset="1" stop-color="#004DFF"/>
</radialGradient>
<radialGradient id="paint1_radial_30_595" cx="0" cy="0" r="1" gradientUnits="userSpaceOnUse" gradientTransform="translate(181.998 491.345) rotate(-40.9122) scale(44.7839 32.9571)">
<stop stop-color="#3CC7F5"/>
<stop offset="0.0001" stop-color="#3CC7F5"/>
<stop offset="1" stop-color="#004DFF"/>
</radialGradient>
<radialGradient id="paint2_radial_30_595" cx="0" cy="0" r="1" gradientUnits="userSpaceOnUse" gradientTransform="translate(188.536 466.904) rotate(58.9731) scale(39.2592 10.9306)">
<stop stop-color="white"/>
<stop offset="0.555017" stop-color="#BDDBF1" stop-opacity="0.25"/>
<stop offset="1" stop-color="#5686F5" stop-opacity="0"/>
</radialGradient>
<radialGradient id="paint3_radial_30_595" cx="0" cy="0" r="1" gradientUnits="userSpaceOnUse" gradientTransform="translate(172.255 498.246) rotate(52.9232) scale(21.2638 10.0805)">
<stop stop-color="white"/>
<stop offset="0.673987" stop-color="#BDDBF1" stop-opacity="0.25"/>
<stop offset="1" stop-color="#5686F5" stop-opacity="0"/>
</radialGradient>
<radialGradient id="paint4_radial_30_595" cx="0" cy="0" r="1" gradientUnits="userSpaceOnUse" gradientTransform="translate(229.574 420.489) rotate(-39.0214) scale(38.8946 28.2895)">
<stop stop-color="#3CC7F5"/>
<stop offset="0.0001" stop-color="#3CC7F5"/>
<stop offset="1" stop-color="#004DFF"/>
</radialGradient>
<radialGradient id="paint5_radial_30_595" cx="0" cy="0" r="1" gradientUnits="userSpaceOnUse" gradientTransform="translate(229.345 420.376) rotate(-39.0214) scale(38.8946 28.2895)">
<stop stop-color="#3CC7F5"/>
<stop offset="0.0001" stop-color="#3CC7F5"/>
<stop offset="1" stop-color="#004DFF"/>
</radialGradient>
<radialGradient id="paint6_radial_30_595" cx="0" cy="0" r="1" gradientUnits="userSpaceOnUse" gradientTransform="translate(235.182 399.969) rotate(57.2503) scale(33.3987 9.57856)">
<stop stop-color="white"/>
<stop offset="0.555017" stop-color="#BDDBF1" stop-opacity="0.25"/>
<stop offset="1" stop-color="#5686F5" stop-opacity="0"/>
</radialGradient>
<radialGradient id="paint7_radial_30_595" cx="0" cy="0" r="1" gradientUnits="userSpaceOnUse" gradientTransform="translate(220.646 426.138) rotate(51.0597) scale(18.2114 8.77451)">
<stop stop-color="white"/>
<stop offset="0.673987" stop-color="#BDDBF1" stop-opacity="0.25"/>
<stop offset="1" stop-color="#5686F5" stop-opacity="0"/>
</radialGradient>
<radialGradient id="paint8_radial_30_595" cx="0" cy="0" r="1" gradientUnits="userSpaceOnUse" gradientTransform="translate(278.585 491.481) rotate(-40.9122) scale(44.7839 32.9571)">
<stop stop-color="#3CC7F5"/>
<stop offset="0.0001" stop-color="#3CC7F5"/>
<stop offset="1" stop-color="#004DFF"/>
</radialGradient>
<radialGradient id="paint9_radial_30_595" cx="0" cy="0" r="1" gradientUnits="userSpaceOnUse" gradientTransform="translate(278.329 491.345) rotate(-40.9122) scale(44.7839 32.9571)">
<stop stop-color="#3CC7F5"/>
<stop offset="0.0001" stop-color="#3CC7F5"/>
<stop offset="1" stop-color="#004DFF"/>
</radialGradient>
<radialGradient id="paint10_radial_30_595" cx="0" cy="0" r="1" gradientUnits="userSpaceOnUse" gradientTransform="translate(284.867 466.904) rotate(58.9731) scale(39.2592 10.9306)">
<stop stop-color="white"/>
<stop offset="0.555017" stop-color="#BDDBF1" stop-opacity="0.25"/>
<stop offset="1" stop-color="#5686F5" stop-opacity="0"/>
</radialGradient>
<radialGradient id="paint11_radial_30_595" cx="0" cy="0" r="1" gradientUnits="userSpaceOnUse" gradientTransform="translate(268.586 498.246) rotate(52.9232) scale(21.2638 10.0805)">
<stop stop-color="white"/>
<stop offset="0.673987" stop-color="#BDDBF1" stop-opacity="0.25"/>
<stop offset="1" stop-color="#5686F5" stop-opacity="0"/>
</radialGradient>
<radialGradient id="paint12_radial_30_595" cx="0" cy="0" r="1" gradientUnits="userSpaceOnUse" gradientTransform="translate(135.17 420.1) rotate(-39.0214) scale(38.8946 28.2895)">
<stop stop-color="#3CC7F5"/>
<stop offset="0.0001" stop-color="#3CC7F5"/>
<stop offset="1" stop-color="#004DFF"/>
</radialGradient>
<radialGradient id="paint13_radial_30_595" cx="0" cy="0" r="1" gradientUnits="userSpaceOnUse" gradientTransform="translate(134.941 419.986) rotate(-39.0214) scale(38.8946 28.2895)">
<stop stop-color="#3CC7F5"/>
<stop offset="0.0001" stop-color="#3CC7F5"/>
<stop offset="1" stop-color="#004DFF"/>
</radialGradient>
<radialGradient id="paint14_radial_30_595" cx="0" cy="0" r="1" gradientUnits="userSpaceOnUse" gradientTransform="translate(140.779 399.579) rotate(57.2503) scale(33.3987 9.57856)">
<stop stop-color="white"/>
<stop offset="0.555017" stop-color="#BDDBF1" stop-opacity="0.25"/>
<stop offset="1" stop-color="#5686F5" stop-opacity="0"/>
</radialGradient>
<radialGradient id="paint15_radial_30_595" cx="0" cy="0" r="1" gradientUnits="userSpaceOnUse" gradientTransform="translate(126.242 425.748) rotate(51.0597) scale(18.2114 8.77451)">
<stop stop-color="white"/>
<stop offset="0.673987" stop-color="#BDDBF1" stop-opacity="0.25"/>
<stop offset="1" stop-color="#5686F5" stop-opacity="0"/>
</radialGradient>
<radialGradient id="paint16_radial_30_595" cx="0" cy="0" r="1" gradientUnits="userSpaceOnUse" gradientTransform="translate(323.014 420.489) rotate(-39.021) scale(38.8945 28.2893)">
<stop stop-color="#3CC7F5"/>
<stop offset="0.0001" stop-color="#3CC7F5"/>
<stop offset="1" stop-color="#004DFF"/>
</radialGradient>
<radialGradient id="paint17_radial_30_595" cx="0" cy="0" r="1" gradientUnits="userSpaceOnUse" gradientTransform="translate(322.785 420.376) rotate(-39.0214) scale(38.8946 28.2895)">
<stop stop-color="#3CC7F5"/>
<stop offset="0.0001" stop-color="#3CC7F5"/>
<stop offset="1" stop-color="#004DFF"/>
</radialGradient>
<radialGradient id="paint18_radial_30_595" cx="0" cy="0" r="1" gradientUnits="userSpaceOnUse" gradientTransform="translate(328.622 399.969) rotate(57.2503) scale(33.3987 9.57856)">
<stop stop-color="white"/>
<stop offset="0.555017" stop-color="#BDDBF1" stop-opacity="0.25"/>
<stop offset="1" stop-color="#5686F5" stop-opacity="0"/>
</radialGradient>
<radialGradient id="paint19_radial_30_595" cx="0" cy="0" r="1" gradientUnits="userSpaceOnUse" gradientTransform="translate(314.086 426.138) rotate(51.0597) scale(18.2114 8.77451)">
<stop stop-color="white"/>
<stop offset="0.673987" stop-color="#BDDBF1" stop-opacity="0.25"/>
<stop offset="1" stop-color="#5686F5" stop-opacity="0"/>
</radialGradient>
<linearGradient id="paint20_linear_30_595" x1="215.564" y1="-2.57464e-05" x2="378.013" y2="257.137" gradientUnits="userSpaceOnUse">
<stop stop-color="#9B87EB"/>
<stop offset="0.659096" stop-color="#3010AC"/>
</linearGradient>
<linearGradient id="paint21_linear_30_595" x1="29.4233" y1="67" x2="419.459" y2="367.861" gradientUnits="userSpaceOnUse">
<stop stop-color="white"/>
<stop offset="1" stop-color="#C1C1C1"/>
</linearGradient>
</defs>
</svg>
