<svg width="424" height="529" viewBox="0 0 424 529" fill="none" xmlns="http://www.w3.org/2000/svg">
<g filter="url(#filter0_f_30_694)">
<path fill-rule="evenodd" clip-rule="evenodd" d="M208.467 307H143.677L114.037 405.638H146.929L119.547 507L210.367 383.565L162.01 383.565L208.467 307Z" fill="url(#paint0_linear_30_694)"/>
</g>
<g style="mix-blend-mode:color-burn" opacity="0.5" filter="url(#filter1_f_30_694)">
<path fill-rule="evenodd" clip-rule="evenodd" d="M249.55 420.548C246.512 426.652 240.354 430.828 233.252 430.828C223.137 430.828 214.938 422.359 214.938 411.911C214.938 410.414 215.1 408.9 215.408 407.363C213.934 410.999 213.107 414.468 213.107 417.855C213.107 428.302 221.306 436.772 231.42 436.772C240.65 436.772 248.284 429.72 249.55 420.548Z" fill="url(#paint1_radial_30_694)" fill-opacity="0.3"/>
</g>
<path opacity="0.5" d="M249.551 417.761C249.551 428.209 241.352 436.678 231.237 436.678C221.123 436.678 212.923 428.209 212.923 417.761C212.923 407.313 220.798 396.071 231.237 381.611C240.028 395.675 249.551 407.313 249.551 417.761Z" fill="url(#paint2_radial_30_694)"/>
<g style="mix-blend-mode:screen" opacity="0.3">
<ellipse cx="235.907" cy="402.212" rx="18.7716" ry="19.8083" fill="url(#paint3_radial_30_694)"/>
</g>
<g style="mix-blend-mode:screen" opacity="0.3">
<ellipse cx="225.285" cy="423.802" rx="18.7716" ry="19.8083" fill="url(#paint4_radial_30_694)"/>
</g>
<g style="mix-blend-mode:color-burn" opacity="0.5" filter="url(#filter2_f_30_694)">
<path fill-rule="evenodd" clip-rule="evenodd" d="M338.174 432.432C335.136 438.832 328.978 443.21 321.876 443.21C311.761 443.21 303.562 434.331 303.562 423.378C303.562 421.808 303.724 420.22 304.032 418.608C302.558 422.42 301.731 426.058 301.731 429.608C301.731 440.561 309.93 449.44 320.044 449.44C329.273 449.44 336.908 442.047 338.174 432.432Z" fill="url(#paint5_radial_30_694)" fill-opacity="0.3"/>
</g>
<path opacity="0.5" d="M338.175 429.51C338.175 440.463 329.975 449.342 319.861 449.342C309.747 449.342 301.547 440.463 301.547 429.51C301.547 418.557 309.422 406.771 319.861 391.611C328.652 406.355 338.175 418.557 338.175 429.51Z" fill="url(#paint6_radial_30_694)"/>
<g style="mix-blend-mode:screen" opacity="0.3">
<ellipse cx="324.531" cy="413.208" rx="18.7716" ry="20.7668" fill="url(#paint7_radial_30_694)"/>
</g>
<g style="mix-blend-mode:screen" opacity="0.3">
<ellipse cx="313.909" cy="435.844" rx="18.7716" ry="20.7668" fill="url(#paint8_radial_30_694)"/>
</g>
<g style="mix-blend-mode:color-burn" opacity="0.5" filter="url(#filter3_f_30_694)">
<path fill-rule="evenodd" clip-rule="evenodd" d="M298.103 498.853C294.154 506.73 286.148 512.118 276.915 512.118C263.767 512.118 253.108 501.19 253.108 487.709C253.108 485.776 253.318 483.822 253.719 481.837C251.802 486.529 250.727 491.007 250.727 495.377C250.727 508.857 261.386 519.786 274.535 519.786C286.532 519.786 296.457 510.687 298.103 498.853Z" fill="url(#paint9_radial_30_694)" fill-opacity="0.3"/>
</g>
<path opacity="0.5" d="M298.104 495.256C298.104 508.737 287.445 519.665 274.296 519.665C261.148 519.665 250.488 508.737 250.488 495.256C250.488 481.776 260.726 467.269 274.296 448.611C285.724 466.758 298.104 481.776 298.104 495.256Z" fill="url(#paint10_radial_30_694)"/>
<g style="mix-blend-mode:screen" opacity="0.3">
<ellipse cx="280.367" cy="475.192" rx="24.4031" ry="25.5591" fill="url(#paint11_radial_30_694)"/>
</g>
<g style="mix-blend-mode:screen" opacity="0.3">
<ellipse cx="266.559" cy="503.052" rx="24.4031" ry="25.5591" fill="url(#paint12_radial_30_694)"/>
</g>
<g filter="url(#filter4_di_30_694)">
<path fill-rule="evenodd" clip-rule="evenodd" d="M331.51 1.08608C326.359 0.370135 321.096 0 315.747 0C253.345 0 202.759 50.368 202.759 112.5C202.759 174.632 253.345 225 315.747 225C362.68 225 402.929 196.509 420 155.95C418.899 155.983 417.793 156 416.683 156C359.69 156 313.487 111.676 313.487 57C313.487 36.2527 320.14 16.996 331.51 1.08608Z" fill="url(#paint13_linear_30_694)"/>
</g>
<mask id="path-15-inside-1_30_694" fill="white">
<path fill-rule="evenodd" clip-rule="evenodd" d="M319.761 367L150.358 367C67.3176 367 0 299.843 0 217C0 134.157 67.3176 67 150.358 67C217.131 67 273.738 110.423 293.354 170.507C301.767 168.22 310.622 167 319.761 167C375.122 167 420 211.772 420 267C420 322.228 375.122 367 319.761 367Z"/>
</mask>
<g filter="url(#filter5_i_30_694)">
<path fill-rule="evenodd" clip-rule="evenodd" d="M319.761 367L150.358 367C67.3176 367 0 299.843 0 217C0 134.157 67.3176 67 150.358 67C217.131 67 273.738 110.423 293.354 170.507C301.767 168.22 310.622 167 319.761 167C375.122 167 420 211.772 420 267C420 322.228 375.122 367 319.761 367Z" fill="url(#paint14_linear_30_694)"/>
</g>
<path d="M150.358 367V366V367ZM319.761 367V368V367ZM293.354 170.507L292.403 170.817L292.698 171.721L293.616 171.472L293.354 170.507ZM150.358 368L319.761 368V366L150.358 366V368ZM-1 217C-1 300.397 66.7675 368 150.358 368V366C67.8676 366 1 299.288 1 217H-1ZM150.358 66C66.7675 66 -1 133.603 -1 217H1C1 134.712 67.8676 68 150.358 68V66ZM294.304 170.196C274.558 109.712 217.575 66 150.358 66V68C216.687 68 272.918 111.133 292.403 170.817L294.304 170.196ZM293.616 171.472C301.945 169.208 310.711 168 319.761 168V166C310.532 166 301.59 167.232 293.091 169.542L293.616 171.472ZM319.761 168C374.572 168 419 212.326 419 267H421C421 211.217 375.672 166 319.761 166V168ZM419 267C419 321.674 374.572 366 319.761 366V368C375.672 368 421 322.783 421 267H419Z" fill="black" fill-opacity="0.05" mask="url(#path-15-inside-1_30_694)"/>
<defs>
<filter id="filter0_f_30_694" x="109.037" y="302" width="106.33" height="210" filterUnits="userSpaceOnUse" color-interpolation-filters="sRGB">
<feFlood flood-opacity="0" result="BackgroundImageFix"/>
<feBlend mode="normal" in="SourceGraphic" in2="BackgroundImageFix" result="shape"/>
<feGaussianBlur stdDeviation="2.5" result="effect1_foregroundBlur_30_694"/>
</filter>
<filter id="filter1_f_30_694" x="205.107" y="399.363" width="52.4434" height="45.4089" filterUnits="userSpaceOnUse" color-interpolation-filters="sRGB">
<feFlood flood-opacity="0" result="BackgroundImageFix"/>
<feBlend mode="normal" in="SourceGraphic" in2="BackgroundImageFix" result="shape"/>
<feGaussianBlur stdDeviation="4" result="effect1_foregroundBlur_30_694"/>
</filter>
<filter id="filter2_f_30_694" x="293.731" y="410.608" width="52.4432" height="46.8323" filterUnits="userSpaceOnUse" color-interpolation-filters="sRGB">
<feFlood flood-opacity="0" result="BackgroundImageFix"/>
<feBlend mode="normal" in="SourceGraphic" in2="BackgroundImageFix" result="shape"/>
<feGaussianBlur stdDeviation="4" result="effect1_foregroundBlur_30_694"/>
</filter>
<filter id="filter3_f_30_694" x="242.727" y="473.837" width="63.3762" height="53.9482" filterUnits="userSpaceOnUse" color-interpolation-filters="sRGB">
<feFlood flood-opacity="0" result="BackgroundImageFix"/>
<feBlend mode="normal" in="SourceGraphic" in2="BackgroundImageFix" result="shape"/>
<feGaussianBlur stdDeviation="4" result="effect1_foregroundBlur_30_694"/>
</filter>
<filter id="filter4_di_30_694" x="177.759" y="0" width="246.241" height="240" filterUnits="userSpaceOnUse" color-interpolation-filters="sRGB">
<feFlood flood-opacity="0" result="BackgroundImageFix"/>
<feColorMatrix in="SourceAlpha" type="matrix" values="0 0 0 0 0 0 0 0 0 0 0 0 0 0 0 0 0 0 127 0" result="hardAlpha"/>
<feOffset dy="4"/>
<feGaussianBlur stdDeviation="2"/>
<feComposite in2="hardAlpha" operator="out"/>
<feColorMatrix type="matrix" values="0 0 0 0 0 0 0 0 0 0 0 0 0 0 0 0 0 0 0.25 0"/>
<feBlend mode="normal" in2="BackgroundImageFix" result="effect1_dropShadow_30_694"/>
<feBlend mode="normal" in="SourceGraphic" in2="effect1_dropShadow_30_694" result="shape"/>
<feColorMatrix in="SourceAlpha" type="matrix" values="0 0 0 0 0 0 0 0 0 0 0 0 0 0 0 0 0 0 127 0" result="hardAlpha"/>
<feOffset dx="-25" dy="15"/>
<feGaussianBlur stdDeviation="12.5"/>
<feComposite in2="hardAlpha" operator="arithmetic" k2="-1" k3="1"/>
<feColorMatrix type="matrix" values="0 0 0 0 0.607843 0 0 0 0 0.529412 0 0 0 0 0.921569 0 0 0 1 0"/>
<feBlend mode="normal" in2="shape" result="effect2_innerShadow_30_694"/>
</filter>
<filter id="filter5_i_30_694" x="0" y="67" width="420" height="348.647" filterUnits="userSpaceOnUse" color-interpolation-filters="sRGB">
<feFlood flood-opacity="0" result="BackgroundImageFix"/>
<feBlend mode="normal" in="SourceGraphic" in2="BackgroundImageFix" result="shape"/>
<feColorMatrix in="SourceAlpha" type="matrix" values="0 0 0 0 0 0 0 0 0 0 0 0 0 0 0 0 0 0 127 0" result="hardAlpha"/>
<feOffset dy="48.6468"/>
<feGaussianBlur stdDeviation="30"/>
<feComposite in2="hardAlpha" operator="arithmetic" k2="-1" k3="1"/>
<feColorMatrix type="matrix" values="0 0 0 0 1 0 0 0 0 1 0 0 0 0 1 0 0 0 1 0"/>
<feBlend mode="normal" in2="shape" result="effect1_innerShadow_30_694"/>
</filter>
<linearGradient id="paint0_linear_30_694" x1="162.202" y1="307" x2="162.202" y2="507" gradientUnits="userSpaceOnUse">
<stop stop-color="#FFE176"/>
<stop offset="0.47859" stop-color="#FEC255"/>
<stop offset="1" stop-color="#FEA031"/>
</linearGradient>
<radialGradient id="paint1_radial_30_694" cx="0" cy="0" r="1" gradientUnits="userSpaceOnUse" gradientTransform="translate(231.42 419.143) rotate(-39.8876) scale(31.5054 23.0513)">
<stop stop-color="#3CC7F5"/>
<stop offset="0.0001" stop-color="#3CC7F5"/>
<stop offset="1" stop-color="#004DFF"/>
</radialGradient>
<radialGradient id="paint2_radial_30_694" cx="0" cy="0" r="1" gradientUnits="userSpaceOnUse" gradientTransform="translate(231.237 419.049) rotate(-39.8885) scale(31.5057 23.0517)">
<stop stop-color="#3CC7F5"/>
<stop offset="0.0001" stop-color="#3CC7F5"/>
<stop offset="1" stop-color="#004DFF"/>
</radialGradient>
<radialGradient id="paint3_radial_30_694" cx="0" cy="0" r="1" gradientUnits="userSpaceOnUse" gradientTransform="translate(235.907 402.212) rotate(58.0492) scale(27.3136 7.73083)">
<stop stop-color="white"/>
<stop offset="0.555017" stop-color="#BDDBF1" stop-opacity="0.25"/>
<stop offset="1" stop-color="#5686F5" stop-opacity="0"/>
</radialGradient>
<radialGradient id="paint4_radial_30_694" cx="0" cy="0" r="1" gradientUnits="userSpaceOnUse" gradientTransform="translate(224.278 423.802) rotate(51.9207) scale(14.8469 7.10405)">
<stop stop-color="white"/>
<stop offset="0.673987" stop-color="#BDDBF1" stop-opacity="0.25"/>
<stop offset="1" stop-color="#5686F5" stop-opacity="0"/>
</radialGradient>
<radialGradient id="paint5_radial_30_694" cx="0" cy="0" r="1" gradientUnits="userSpaceOnUse" gradientTransform="translate(320.044 430.958) rotate(-41.2253) scale(32.1412 23.6889)">
<stop stop-color="#3CC7F5"/>
<stop offset="0.0001" stop-color="#3CC7F5"/>
<stop offset="1" stop-color="#004DFF"/>
</radialGradient>
<radialGradient id="paint6_radial_30_694" cx="0" cy="0" r="1" gradientUnits="userSpaceOnUse" gradientTransform="translate(319.861 430.86) rotate(-41.2258) scale(32.1414 23.6891)">
<stop stop-color="#3CC7F5"/>
<stop offset="0.0001" stop-color="#3CC7F5"/>
<stop offset="1" stop-color="#004DFF"/>
</radialGradient>
<radialGradient id="paint7_radial_30_694" cx="0" cy="0" r="1" gradientUnits="userSpaceOnUse" gradientTransform="translate(324.531 413.208) rotate(59.252) scale(28.2714 7.83033)">
<stop stop-color="white"/>
<stop offset="0.555017" stop-color="#BDDBF1" stop-opacity="0.25"/>
<stop offset="1" stop-color="#5686F5" stop-opacity="0"/>
</radialGradient>
<radialGradient id="paint8_radial_30_694" cx="0" cy="0" r="1" gradientUnits="userSpaceOnUse" gradientTransform="translate(312.902 435.844) rotate(53.2273) scale(15.2961 7.22912)">
<stop stop-color="white"/>
<stop offset="0.673987" stop-color="#BDDBF1" stop-opacity="0.25"/>
<stop offset="1" stop-color="#5686F5" stop-opacity="0"/>
</radialGradient>
<radialGradient id="paint9_radial_30_694" cx="0" cy="0" r="1" gradientUnits="userSpaceOnUse" gradientTransform="translate(274.535 497.038) rotate(-39.6781) scale(40.8324 29.8353)">
<stop stop-color="#3CC7F5"/>
<stop offset="0.0001" stop-color="#3CC7F5"/>
<stop offset="1" stop-color="#004DFF"/>
</radialGradient>
<radialGradient id="paint10_radial_30_694" cx="0" cy="0" r="1" gradientUnits="userSpaceOnUse" gradientTransform="translate(274.296 496.918) rotate(-39.678) scale(40.8323 29.8352)">
<stop stop-color="#3CC7F5"/>
<stop offset="0.0001" stop-color="#3CC7F5"/>
<stop offset="1" stop-color="#004DFF"/>
</radialGradient>
<radialGradient id="paint11_radial_30_694" cx="0" cy="0" r="1" gradientUnits="userSpaceOnUse" gradientTransform="translate(280.367 475.192) rotate(57.8567) scale(35.3176 10.029)">
<stop stop-color="white"/>
<stop offset="0.555017" stop-color="#BDDBF1" stop-opacity="0.25"/>
<stop offset="1" stop-color="#5686F5" stop-opacity="0"/>
</radialGradient>
<radialGradient id="paint12_radial_30_694" cx="0" cy="0" r="1" gradientUnits="userSpaceOnUse" gradientTransform="translate(265.249 503.052) rotate(51.7127) scale(19.2121 9.20894)">
<stop stop-color="white"/>
<stop offset="0.673987" stop-color="#BDDBF1" stop-opacity="0.25"/>
<stop offset="1" stop-color="#5686F5" stop-opacity="0"/>
</radialGradient>
<linearGradient id="paint13_linear_30_694" x1="215.564" y1="-2.57464e-05" x2="378.013" y2="257.137" gradientUnits="userSpaceOnUse">
<stop stop-color="#9B87EB"/>
<stop offset="0.659096" stop-color="#3010AC"/>
</linearGradient>
<linearGradient id="paint14_linear_30_694" x1="29.4233" y1="67" x2="419.459" y2="367.861" gradientUnits="userSpaceOnUse">
<stop stop-color="white"/>
<stop offset="1" stop-color="#C1C1C1"/>
</linearGradient>
</defs>
</svg>
